<svg xmlns="http://www.w3.org/2000/svg" width="95.117" height="194.923" viewBox="0 0 95.117 194.923">
  <g id="Gruppe_38" data-name="Gruppe 38" transform="translate(-1330.095 -367.103)">
    <path id="Pfad_342" data-name="Pfad 342" d="M106.6,60.083s9.858-5.765,21.1,21.85c6.745,16.488,9.512,34.072,2.71,33.149S98.358,78.82,106.6,60.083Z" transform="translate(1290.841 365.77)" fill="#f4b54f"/>
    <path id="Pfad_343" data-name="Pfad 343" d="M98.19,61.408a10.377,10.377,0,0,1,13.2-4.843C121.539,59.1,99.747,73.053,98.19,61.408Z" transform="translate(1258.552 347.611)" fill="#f0f0f0"/>
    <path id="Pfad_344" data-name="Pfad 344" d="M102.694,55.92c-.346,0-6.284,2.421-2.767,4.209S105.634,57.534,102.694,55.92Z" transform="translate(1261.542 348.314)" fill="#f0f0f0" opacity="0.7" style="mix-blend-mode: multiply;isolation: isolate"/>
    <path id="Pfad_345" data-name="Pfad 345" d="M118.507,63.894a11.53,11.53,0,0,0-7.437-7.552c-5.765-1.268-10.377,8.648-7.841,14.125S119.141,71.446,118.507,63.894Z" transform="translate(1279.167 349.795)" fill="#f0f0f0"/>
    <path id="Pfad_346" data-name="Pfad 346" d="M109.686,57.005s0,6.976-5.131,6.63C99.424,59.311,108.014,55.045,109.686,57.005Z" transform="translate(1281.186 351.149)" fill="#f0f0f0" opacity="0.7" style="mix-blend-mode: multiply;isolation: isolate"/>
    <path id="Pfad_347" data-name="Pfad 347" d="M103.991,87.628c-3.517,18.621-7.956,67.164-9.051,72.352,9.339,7.437,30.267,4.439,32.458.865,4.382-7.725,1.73-16.315,3.863-15.969,3.574.519,2.479,15.969,7.725,17.872s27.73,4.958,31.823-1.1c-5.765-24.5-5.765-67.625-11.53-78.867C148.5,59.782,109.353,59.782,103.991,87.628Z" transform="translate(1243.065 396.799)" fill="#f0f0f0"/>
    <path id="Pfad_348" data-name="Pfad 348" d="M102.621,62.342s5.246,18.91-3.171,23.925c14.182,12.626,26.635,2.71,25.424-1.211-6.226-6.976-1.1-24.848-2.594-26.635S98.124,47.18,102.621,62.342Z" transform="translate(1264.556 338.548)" fill="#f4a56e"/>
    <path id="Pfad_349" data-name="Pfad 349" d="M119.4,70.674a31.648,31.648,0,0,1-.634-9.109A21.444,21.444,0,0,0,113,55.8H100.09a47.5,47.5,0,0,1,.98,9.57,16.142,16.142,0,0,0,18.333,5.3Z" transform="translate(1267.605 347.742)" fill="#f4a56e"/>
    <path id="Pfad_350" data-name="Pfad 350" d="M114.289,57.61a5.246,5.246,0,1,1-10.435,0,5.246,5.246,0,1,1,10.435,0Z" transform="translate(1285.403 328.752)" fill="#361d57"/>
    <path id="Pfad_351" data-name="Pfad 351" d="M112.857,58.874a4.612,4.612,0,1,1-3.055-5.765,4.785,4.785,0,0,1,3.055,5.765Z" transform="translate(1285.451 333.945)" fill="#361d57"/>
    <path id="Pfad_352" data-name="Pfad 352" d="M134.063,70.877c0,10.9-5.765,19.2-16.6,19.313A19.486,19.486,0,0,1,99.069,70.3a17.7,17.7,0,1,1,35.167.577Z" transform="translate(1262.343 324.363)" fill="#f4a56e"/>
    <path id="Pfad_353" data-name="Pfad 353" d="M109.665,59.439a5.765,5.765,0,1,1-6.688-6.284,6.4,6.4,0,0,1,6.688,6.284Z" transform="translate(1258.434 335.109)" fill="#f4a56e"/>
    <path id="Pfad_354" data-name="Pfad 354" d="M101.385,59.079h0a5.765,5.765,0,0,0-1.441-4.554,2.134,2.134,0,0,0-1.384-.634h0a2.364,2.364,0,0,1,1.672.749,6.342,6.342,0,0,1,1.384,4.9Z" transform="translate(1260.315 338.641)" fill="#361d57"/>
    <path id="Pfad_355" data-name="Pfad 355" d="M100.272,57.109H99.7a1.557,1.557,0,0,1-.922-1.787,1.384,1.384,0,0,1,.577-.865,1.5,1.5,0,0,1,1.038,0h0a.75.75,0,0,0-.577,0l-.4.519a1.1,1.1,0,0,0,.692,1.211h.865v.346A.749.749,0,0,1,100.272,57.109Z" transform="translate(1261.14 340.899)" fill="#361d57"/>
    <path id="Pfad_356" data-name="Pfad 356" d="M100.442,71.852s3.344-1.153,4.093,3.632,2.191,5.362,2.479,2.883-.288-6.918.98-8.648,3.8.865,8.3-5.131a6.918,6.918,0,0,0,9.858-1.1c-.634,3.69,7.322,5.016,8.013,2.018,7.437,5.765,11.53-9.455.749-8.417a5.3,5.3,0,0,0-10.2-2.71c-2.652-7.091-14.874-6.572-14.759,2.075C105.284,51.674,93,58.592,100.442,71.852Z" transform="translate(1258.145 317.623)" fill="#361d57"/>
    <path id="Pfad_357" data-name="Pfad 357" d="M102.911,63.364v-.288a2.594,2.594,0,0,0,1.557-1.211,7.09,7.09,0,0,0,0-1.96,27.092,27.092,0,0,1-.519-5.765h0a24.33,24.33,0,0,0,.519,5.765,4.958,4.958,0,0,1,0,2.191,2.825,2.825,0,0,1-1.787,1.441Z" transform="translate(1279.947 339.832)" fill="#361d57"/>
    <path id="Pfad_358" data-name="Pfad 358" d="M101.7,59.068a5.015,5.015,0,0,1,3.459-2.883,5.765,5.765,0,0,1,4.67.519c.692.4,3.517,2.421,2.191,3.632a.577.577,0,0,1-.577,0h0a17.984,17.984,0,0,0-3.4-.749,15.792,15.792,0,0,0-3.69.461c-.576,0-2.94.749-2.652-.865q0-.058,0-.115Z" transform="translate(1275.162 348.279)" fill="#361d57"/>
    <path id="Pfad_359" data-name="Pfad 359" d="M103.438,54.108a14.3,14.3,0,0,0,7.437,2.71c0-.692-.4-1.672-.346-2.248a22.657,22.657,0,0,1-6.63-1.5C103.323,53.185,103.438,54.108,103.438,54.108Z" transform="translate(1283.513 334.733)" fill="#361d57"/>
    <path id="Pfad_360" data-name="Pfad 360" d="M103.483,56.439a4.9,4.9,0,0,1,7.091-1.73c2.364,1.384,1.787,3.459,0,3.228s-3-2.018-6.226-.922C103.31,57.477,103.195,57.131,103.483,56.439Z" transform="translate(1283.122 338.455)" fill="#f4a56e"/>
    <path id="Pfad_361" data-name="Pfad 361" d="M110.13,56.825a4.554,4.554,0,0,0-3.286-2.248h0a4.151,4.151,0,0,0-3,1.557l-.346-.346A4.785,4.785,0,0,1,106.383,54h0a5.015,5.015,0,0,1,3.69,2.421v.346Z" transform="translate(1283.854 339.165)" fill="#361d57"/>
    <path id="Pfad_362" data-name="Pfad 362" d="M103.42,54.48s4.209,3.747,7.783.634a4.036,4.036,0,0,1-7.783-.634Z" transform="translate(1283.473 341.452)" fill="#f4a56e"/>
    <path id="Pfad_363" data-name="Pfad 363" d="M108.307,54.155a14.528,14.528,0,0,1-7.437,2.652c0-.634.4-1.672.346-2.248a22.657,22.657,0,0,0,6.63-1.5C108.422,53.175,108.307,54.155,108.307,54.155Z" transform="translate(1271.322 334.686)" fill="#361d57"/>
    <path id="Pfad_364" data-name="Pfad 364" d="M109.464,56.37a4.9,4.9,0,0,0-7.091-1.614c-2.364,1.384-1.787,3.459,0,3.229s3.056-2.018,6.226-.922C109.637,57.408,109.752,57.062,109.464,56.37Z" transform="translate(1271.03 338.524)" fill="#f4a56e"/>
    <path id="Pfad_365" data-name="Pfad 365" d="M101,56.777h0v-.346a4.9,4.9,0,0,1,3.69-2.421h0a4.958,4.958,0,0,1,3.344,1.672v.346h0a4.324,4.324,0,0,0-3-1.557h0a4.612,4.612,0,0,0-3.344,2.248A6.077,6.077,0,0,1,101,56.777Z" transform="translate(1271.942 339.213)" fill="#361d57"/>
    <path id="Pfad_366" data-name="Pfad 366" d="M108.741,54.48a6.342,6.342,0,0,1-7.841.634C103.494,58.919,107.876,58.689,108.741,54.48Z" transform="translate(1271.465 341.452)" fill="#f4a56e"/>
    <path id="Pfad_367" data-name="Pfad 367" d="M103.382,55.29a1.063,1.063,0,0,0-1.1,1.211c.115,1.211,1.384,1.1,1.5,1.1a1.384,1.384,0,0,1-.4-2.306Z" transform="translate(1278.035 345.312)" fill="#f4a56e"/>
    <g id="Gruppe_3" data-name="Gruppe 3" transform="translate(1366.715 392.243)" opacity="0.4">
      <path id="Pfad_368" data-name="Pfad 368" d="M100.958,55.9c0,.4,0,.807-.519.807s-.519-.4-.519-.807a8.7,8.7,0,0,1,.519-1.787,8.707,8.707,0,0,1,.519,1.787Z" transform="translate(-99.92 -52.553)" fill="#fff"/>
      <path id="Pfad_369" data-name="Pfad 369" d="M100.947,55.108c0,.346,0,.634-.4.634s-.4-.288-.4-.634a6.63,6.63,0,0,1,.4-1.268,6.628,6.628,0,0,1,.4,1.268Z" transform="translate(-98.872 -53.84)" fill="#fff"/>
      <path id="Pfad_370" data-name="Pfad 370" d="M100.418,54.619v0a3.685,3.685,0,0,1,0-.519,2.652,2.652,0,0,1,0,.519Z" transform="translate(-97.593 -52.601)" fill="#fff"/>
    </g>
    <path id="Pfad_371" data-name="Pfad 371" d="M105.024,56a5.131,5.131,0,0,0-3.344,2.883h0c0,1.614,2.075.98,2.652.865a15.8,15.8,0,0,1,3.69-.461,17.985,17.985,0,0,1,3.4.75h0a7.322,7.322,0,0,0-6.4-4.036Z" transform="translate(1275.182 348.695)" fill="#361d57"/>
    <path id="Pfad_372" data-name="Pfad 372" d="M121.233,58.78a33.783,33.783,0,0,0-16.719,7.033c-6.226,5.765-12.4,68.028-6.745,75.523,8.013,10.55,54.538,14.067,63.07.922s0-73.1-4.324-76.849a31.651,31.651,0,0,0-14.7-5.765C140.258,66.159,124.461,67.139,121.233,58.78Z" transform="translate(1245.944 361.942)" fill="#f4b54f"/>
    <path id="Pfad_373" data-name="Pfad 373" d="M105.016,85.514c-.4,0-.922,0-1.384-1.038-3.517-5.765-1.787-24.041-1.73-24.79a.4.4,0,0,1,.4-.346.288.288,0,0,1,0,.4s-1.787,18.621,1.614,24.329c.519.922.922.749,1.038.692,2.883-1.5,5.765-20.178,4.612-23.464a.346.346,0,0,1,0-.461.4.4,0,0,1,.461,0c1.5,3.517-1.787,22.772-4.9,24.329a.979.979,0,0,1-.115.346Z" transform="translate(1273.979 364.611)" fill="#d3891e"/>
    <path id="Pfad_374" data-name="Pfad 374" d="M119.12,59.949a33.092,33.092,0,0,0-15.8,17.3C97.1,90.62,90.352,103.476,95.252,112.988c7.84,15.162,35.744-1.614,39.779-7.149a10.608,10.608,0,0,1-7.668-12.453c-4.785-2.883-8.071.519-9.743.519C126.96,82.491,131.169,54.588,119.12,59.949Z" transform="translate(1236.527 364.29)" fill="#f4b54f"/>
    <path id="Pfad_375" data-name="Pfad 375" d="M125.694,57.634S136.187,83,106.439,79.83C91.046,71.24,111.858,56.25,125.694,57.634Z" transform="translate(1271.98 356.055)" fill="#f0f0f0"/>
    <path id="Pfad_376" data-name="Pfad 376" d="M103.4,58.5s8.244-3.113,12.049,2.421c1.211,7.091-.577,8.129-.577,8.129Z" transform="translate(1283.378 356.456)" fill="#f0f0f0" opacity="0.7" style="mix-blend-mode: multiply;isolation: isolate"/>
    <path id="Pfad_377" data-name="Pfad 377" d="M114.25,74.775A13.836,13.836,0,0,0,112,58.46s-13.317,11.53-9.282,17.3A30.382,30.382,0,0,0,114.25,74.775Z" transform="translate(1276.506 360.417)" fill="#f0f0f0" opacity="0.7" style="mix-blend-mode: multiply;isolation: isolate"/>
    <path id="Pfad_378" data-name="Pfad 378" d="M102.254,59.4c2.018-2.306,4.9-6.457,13.721,1.268a20.235,20.235,0,0,0,16.431,5.765s11.53,15.624-3.747,19.14S102.6,73.174,100.64,74.443C95.682,74.558,96.374,66.025,102.254,59.4Z" transform="translate(1254.487 349.623)" fill="#f0f0f0"/>
    <path id="Pfad_379" data-name="Pfad 379" d="M103.06,59.348a16.027,16.027,0,0,1,7.495,9.858,67.334,67.334,0,0,1-.577,25.943c4.036,1.1,10.781,1.96,12.107-.865a47.562,47.562,0,0,0-3.344-28.364C114.533,55.082,104.328,57.446,103.06,59.348Z" transform="translate(1281.758 356.877)" fill="#f0f0f0"/>
    <path id="Pfad_380" data-name="Pfad 380" d="M110.264,94.09h0V93.8a68.143,68.143,0,0,0,.577-25.828,14.759,14.759,0,0,0-6.8-9.282C103,58.346,103,58,103,58h0l.519.346a15.162,15.162,0,0,1,6.976,9.57,68.49,68.49,0,0,1-.577,26S110.379,94.09,110.264,94.09Z" transform="translate(1281.472 358.225)" fill="#d3891e"/>
    <path id="Pfad_381" data-name="Pfad 381" d="M104.827,60.271c-2.652-3.92-2.594-.461-6.053,1.1a2.306,2.306,0,0,1-1.384.288,3.171,3.171,0,0,0,3,2.191c1.384-.865,7.091,6.918,15.912,10.2C108.517,70.706,107.306,63.961,104.827,60.271Z" transform="translate(1254.74 360.451)" fill="#f0f0f0" opacity="0.7" style="mix-blend-mode: multiply;isolation: isolate"/>
    <path id="Pfad_382" data-name="Pfad 382" d="M102.71,56.43a47.092,47.092,0,0,1,4.036,3.459l.4.4-.519.346-1.845,1.326v-.922a47.85,47.85,0,0,1,5.765,5.189,43.871,43.871,0,0,1-6.342-4.324l-.692-.461.692-.461,1.96-1.211v.807a38.5,38.5,0,0,1-3.459-4.151Z" transform="translate(1280.09 350.744)" fill="#fff"/>
    <path id="Pfad_383" data-name="Pfad 383" d="M103.215,57.07a40.03,40.03,0,0,1,0,5.246l-.577-.519,2.248-.4h.807V62.2a56.034,56.034,0,0,1-1.845,7.437,47.282,47.282,0,0,1,.692-7.61l.692.634H102.35v-.231C102.638,60.529,102.869,58.8,103.215,57.07Z" transform="translate(1278.375 353.794)" fill="#fff"/>
    <path id="Pfad_384" data-name="Pfad 384" d="M122.133,71.667c1.153-2.421.922-11.53,2.825-12.4s6.572.865,7.9.634,3.978,1.153,3.632,2.421c1.268,1.557,2.883,2.537,1.96,3.978a5.361,5.361,0,0,1-4.554,1.9c1.038,3.286-2.248,5.765-4.727,7.322s-14.643,26.923-20.7,28.307S94.461,92.825,97.8,90.461a183.727,183.727,0,0,0,24.329-18.794Z" transform="translate(1252.942 363.122)" fill="#f4a56e"/>
    <path id="Pfad_385" data-name="Pfad 385" d="M103.83,61.8l-3.69,2.883,1.787,10.723a25.191,25.191,0,0,0,5.765-2.479l3.286-5.765A31.075,31.075,0,0,1,103.83,61.8Z" transform="translate(1267.844 376.333)" fill="#f4a56e"/>
    <path id="Pfad_386" data-name="Pfad 386" d="M103.305,63.21h0c1.73-.692,1.268-2.94,1.211-2.94h0s.577,2.421-1.326,3.228Z" transform="translate(1282.377 369.042)" fill="#361d57"/>
    <path id="Pfad_387" data-name="Pfad 387" d="M103.228,60.287h0a14.872,14.872,0,0,1,2.767,0,11.069,11.069,0,0,1-2.133-.807h0a14.93,14.93,0,0,0,3.229,1.1h0a20.584,20.584,0,0,0-3.92,0Z" transform="translate(1282.282 365.278)" fill="#361d57"/>
    <path id="Pfad_388" data-name="Pfad 388" d="M127.813,61.8a26.577,26.577,0,0,0,6.918,9.109c-9.4,18.91-20.754,27.557-30.267,27.154C93.453,97.544,82.961,74.944,127.813,61.8Z" transform="translate(1242.88 376.333)" fill="#f4b54f"/>
    <path id="Pfad_389" data-name="Pfad 389" d="M120.209,76.333s-1.038-10.492-2.594-10.089,0,5.131-1.1,4.785-6.745-10.781-7.783-9.109,4.727,9.628,4.612,9.8c-.519,1.1-6.688-9.224-8.071-8.417s5.765,8.994,4.785,9.4-5.765-7.552-6.8-6.688,5.3,8.3,4.958,8.705c-1.038,1.441-4.612-4.727-5.765-3.92s4.036,8.475,11.991,12.28c5.765,2.767,15.047,19.255,17.3,18.16s6.63-7.379,5.3-8.936S121.65,78.35,120.209,76.333Z" transform="translate(1278.099 376.04)" fill="#f4a56e"/>
    <path id="Pfad_390" data-name="Pfad 390" d="M112.269,66.3l-.865-.98V64.05a14.816,14.816,0,0,1-7.264,7.091l1.73.922a9.8,9.8,0,0,1,2.248,1.614,4.438,4.438,0,0,0,1.614,0Z" transform="translate(1286.904 387.054)" fill="#f4a56e"/>
    <path id="Pfad_391" data-name="Pfad 391" d="M104.43,71.818A22.2,22.2,0,0,0,110.2,64.15c16.258,5.073,25.366,13.663,26.635,22.2C138.5,97.876,117.92,109.406,104.43,71.818Z" transform="translate(1288.286 387.531)" fill="#f4b54f"/>
    <path id="Pfad_392" data-name="Pfad 392" d="M118.074,92.112a.288.288,0,0,1,0-.461c2.652-1.9,5.765-7.149,12.683-20.351a41.855,41.855,0,0,1-6.63-8.821A70.161,70.161,0,0,0,96.282,80.87a.4.4,0,0,1-.519,0,.346.346,0,0,1,0-.461A70.622,70.622,0,0,1,124.185,61.73h0a39.546,39.546,0,0,0,6.86,9.051h0c-7.264,13.548-10.262,18.852-13.029,20.87Z" transform="translate(1246.566 375.999)" fill="#d3891e"/>
    <path id="Pfad_393" data-name="Pfad 393" d="M120.56,73.889h0a34.014,34.014,0,0,0-15.047-9.224.306.306,0,0,1,.4-.461,35.283,35.283,0,0,1,15.393,9.455.346.346,0,0,1,0,.461Z" transform="translate(1293.026 387.477)" fill="#d3891e"/>
    <path id="Pfad_394" data-name="Pfad 394" d="M122.856,89.2h0a41.624,41.624,0,0,1-18.506-23.06.306.306,0,1,1,.4-.461,41.567,41.567,0,0,0,18.16,23.061.346.346,0,0,1,0,.461A.288.288,0,0,1,122.856,89.2Z" transform="translate(1287.559 394.539)" fill="#d3891e"/>
    <path id="Pfad_395" data-name="Pfad 395" d="M132.015,82.234a86.477,86.477,0,0,1-36.2-7.668V74.22a87.63,87.63,0,0,0,64.569,2.94h0v.288A88.553,88.553,0,0,1,132.015,82.234Z" transform="translate(1247.211 435.516)" fill="#f4b54f"/>
    <path id="Pfad_396" data-name="Pfad 396" d="M101.611,98.86h0c4.266-2.075,3.228-23.06,3.228-23.06h0c0,.865,1.038,21.446-3.459,23.637Z" transform="translate(1273.752 443.044)" fill="#f4b54f"/>
    <path id="Pfad_397" data-name="Pfad 397" d="M101.1,100.4h0a.346.346,0,0,1,0-.346,162.4,162.4,0,0,0,.692-24.5h0a155.953,155.953,0,0,1-.692,24.675S101.214,100.4,101.1,100.4Z" transform="translate(1272.189 441.853)" fill="#f4b54f"/>
    <path id="Pfad_398" data-name="Pfad 398" d="M103.99,76.319a1.5,1.5,0,0,1-1.5,1.441,1.441,1.441,0,0,1-1.441-1.441,1.47,1.47,0,1,1,2.94,0Z" transform="translate(1272.18 438.375)" fill="#f4b54f"/>
  </g>
</svg>
