<svg xmlns="http://www.w3.org/2000/svg" xmlns:xlink="http://www.w3.org/1999/xlink" width="102.154" height="209.758" viewBox="0 0 102.154 209.758">
  <defs>
    <linearGradient id="linear-gradient" x1="0.555" y1="1.033" x2="0.555" y2="-0.031" gradientUnits="objectBoundingBox">
      <stop offset="0" stop-color="#fff"/>
      <stop offset="0.14" stop-color="#fffcfa"/>
      <stop offset="0.29" stop-color="#fdf1ec"/>
      <stop offset="0.46" stop-color="#fbe1d6"/>
      <stop offset="0.63" stop-color="#f8c9b5"/>
      <stop offset="0.8" stop-color="#f4ab8c"/>
      <stop offset="0.98" stop-color="#f0865b"/>
      <stop offset="1" stop-color="#ef8255"/>
    </linearGradient>
    <linearGradient id="linear-gradient-2" x1="0.499" y1="1.022" x2="0.499" y2="0.055" gradientUnits="objectBoundingBox">
      <stop offset="0" stop-color="#fff"/>
      <stop offset="0.19" stop-color="#fffdfc"/>
      <stop offset="0.34" stop-color="#fef5f2"/>
      <stop offset="0.49" stop-color="#fce9e1"/>
      <stop offset="0.62" stop-color="#fad7c9"/>
      <stop offset="0.75" stop-color="#f7c0aa"/>
      <stop offset="0.87" stop-color="#f3a484"/>
      <stop offset="0.99" stop-color="#ef8458"/>
      <stop offset="1" stop-color="#ef8255"/>
    </linearGradient>
  </defs>
  <g id="Gruppe_36" data-name="Gruppe 36" transform="translate(-1609.332 -379.584)">
    <path id="Pfad_526" data-name="Pfad 526" d="M146.1,57.313s10.64-5.911,22.726,23.448c7.225,17.8,10.312,36.125,2.956,35.731C149.06,115.309,137.238,77.674,146.1,57.313Z" transform="translate(1535.454 385.509)" fill="#f4b54f"/>
    <path id="Pfad_527" data-name="Pfad 527" d="M136.93,59.25a11.166,11.166,0,0,1,14.187-5.189C162.086,56.819,138.638,71.86,136.93,59.25Z" transform="translate(1500.819 365.378)" fill="#f0f0f0"/>
    <path id="Pfad_528" data-name="Pfad 528" d="M141.585,53.35s-6.568,2.627-2.956,4.532S144.935,55.123,141.585,53.35Z" transform="translate(1504.243 366.155)" fill="#f0f0f0" opacity="0.7" style="mix-blend-mode: multiply;isolation: isolate"/>
    <path id="Pfad_529" data-name="Pfad 529" d="M158.155,61.918a12.086,12.086,0,0,0-7.948-8.144c-6.043-1.379-11.166,9.261-8.407,15.172S158.811,70,158.155,61.918Z" transform="translate(1523.667 367.833)" fill="#f0f0f0"/>
    <path id="Pfad_530" data-name="Pfad 530" d="M148.683,54.476s0,7.553-5.517,7.225C137.649,56.775,146.844,52.309,148.683,54.476Z" transform="translate(1525.847 369.298)" fill="#f0f0f0" opacity="0.7" style="mix-blend-mode: multiply;isolation: isolate"/>
    <path id="Pfad_531" data-name="Pfad 531" d="M143.647,86.109c-3.81,19.7-8.6,72.249-9.787,77.832,10.049,8.013,32.841,4.729,34.942.854,4.795-8.276,1.9-17.471,4.2-17.143,3.81.591,2.627,17.143,8.276,19.245s29.819,5.32,34.286-1.182C209,139.442,209,92.94,203.351,80.854,191.528,56.552,149.426,55.83,143.647,86.109Z" transform="translate(1483.725 419.767)" fill="#f0f0f0"/>
    <path id="Pfad_532" data-name="Pfad 532" d="M141.545,60.526s5.649,20.427-3.415,25.813c15.3,13.53,28.7,2.89,27.389-1.314-6.568-7.488-1.182-26.732-2.758-28.7S136.685,44.237,141.545,60.526Z" transform="translate(1507.501 355.366)" fill="#f4a56e"/>
    <path id="Pfad_533" data-name="Pfad 533" d="M159.318,69.155a37.045,37.045,0,0,1-.657-9.786,23.186,23.186,0,0,0-5.977-6.108H138.76a60.237,60.237,0,0,1,1.051,10.312,17.34,17.34,0,0,0,19.507,5.583Z" transform="translate(1511.009 365.654)" fill="#f4a56e"/>
    <path id="Pfad_534" data-name="Pfad 534" d="M153.572,55.431a5.649,5.649,0,1,1-5.649-5.911,5.846,5.846,0,0,1,5.649,5.911Z" transform="translate(1530.614 344.829)" fill="#361d57"/>
    <path id="Pfad_535" data-name="Pfad 535" d="M151.746,56.9a4.992,4.992,0,0,1-6.174,3.612,5.189,5.189,0,0,1,2.89-9.918,4.992,4.992,0,0,1,3.284,6.305Z" transform="translate(1530.732 350.319)" fill="#361d57"/>
    <path id="Pfad_536" data-name="Pfad 536" d="M151.025,57.462a6.568,6.568,0,0,1-5.911,7.619,7.225,7.225,0,1,1,5.911-7.619Z" transform="translate(1498.941 351.665)" fill="#f4a56e"/>
    <path id="Pfad_537" data-name="Pfad 537" d="M151.025,57.462a6.568,6.568,0,0,1-5.911,7.619,7.225,7.225,0,1,1,5.911-7.619Z" transform="translate(1498.941 351.665)" fill="url(#linear-gradient)" style="mix-blend-mode: multiply;isolation: isolate"/>
    <path id="Pfad_538" data-name="Pfad 538" d="M175.581,70.178c0,11.691-6.108,20.69-17.8,20.821a21.084,21.084,0,0,1-20.033-21.478,19.048,19.048,0,1,1,37.832.657Z" transform="translate(1504.86 339.671)" fill="#f4a56e"/>
    <path id="Pfad_539" data-name="Pfad 539" d="M175.581,70.178c0,11.691-6.108,20.69-17.8,20.821a21.084,21.084,0,0,1-20.033-21.478,19.048,19.048,0,1,1,37.832.657Z" transform="translate(1504.86 339.671)" fill="url(#linear-gradient-2)" style="mix-blend-mode: multiply;isolation: isolate"/>
    <path id="Pfad_540" data-name="Pfad 540" d="M143.46,55.981c-.394,1.117-1.182,1.773-1.839,1.576s-.854-1.248-.46-2.365,1.182-1.708,1.773-1.511S143.789,55.061,143.46,55.981Z" transform="translate(1523.254 367.793)" fill="#f4a56e"/>
    <path id="Pfad_541" data-name="Pfad 541" d="M140.089,57.028h0a6.569,6.569,0,0,0-1.314-4.926,2.365,2.365,0,0,0-1.445-.657h0a2.3,2.3,0,0,1,1.839.723,7.356,7.356,0,0,1,1.511,5.32Z" transform="translate(1503.046 355.515)" fill="#361d57"/>
    <path id="Pfad_542" data-name="Pfad 542" d="M138.99,54.779h-.525a1.708,1.708,0,0,1-.985-1.9,1.117,1.117,0,0,1,.657-.854,1.379,1.379,0,0,1,1.116,0v.328h0a.985.985,0,0,0-.657,0,1.025,1.025,0,0,0,.328,1.839h.92v.394A.92.92,0,0,1,138.99,54.779Z" transform="translate(1503.685 358.092)" fill="#361d57"/>
    <path id="Pfad_543" data-name="Pfad 543" d="M139.443,71.364s3.547-1.248,4.4,3.941,2.365,5.714,2.627,3.021,0-7.356,1.117-9.261,4.007.92,8.867-5.517c3.941,2.233,8.407,2.365,10.64-1.182-.657,3.941,7.882,5.386,8.6,2.167,8.013,6.568,12.545-10.181.854-9.064a5.714,5.714,0,0,0-10.969-2.89c-2.89-7.685-16.092-7.094-15.96,2.233C144.435,49.689,131.3,57.111,139.443,71.364Z" transform="translate(1500.342 332.312)" fill="#361d57"/>
    <path id="Pfad_544" data-name="Pfad 544" d="M141.443,61.644h0a2.956,2.956,0,0,0,1.642-1.314,7.16,7.16,0,0,0,0-2.1,28.37,28.37,0,0,1-.526-6.568h0a32.84,32.84,0,0,0,.525,6.568,4.269,4.269,0,0,1,0,2.364,2.89,2.89,0,0,1-1.9,1.576Z" transform="translate(1524.484 356.745)" fill="#361d57"/>
    <path id="Pfad_545" data-name="Pfad 545" d="M141.9,51.842a15.567,15.567,0,0,0,7.948,2.89c0-.722-.394-1.839,0-2.43a22.331,22.331,0,0,1-7.159-1.642C141.707,50.791,141.9,51.842,141.9,51.842Z" transform="translate(1528.423 351.177)" fill="#361d57"/>
    <path id="Pfad_546" data-name="Pfad 546" d="M141.962,54.087a5.189,5.189,0,0,1,7.553-1.708c2.627,1.511,1.97,3.744,0,3.481s-3.218-2.167-6.568-.985C141.765,55.269,141.633,54.875,141.962,54.087Z" transform="translate(1527.971 355.369)" fill="#f4a56e"/>
    <path id="Pfad_547" data-name="Pfad 547" d="M148.735,54.227h0a4.663,4.663,0,0,0-3.547-2.43h0a4.8,4.8,0,0,0-3.218,1.642h0a5.189,5.189,0,0,1,3.612-1.839h0a5.189,5.189,0,0,1,3.941,2.627v.394Z" transform="translate(1528.882 356.411)" fill="#361d57"/>
    <path id="Pfad_548" data-name="Pfad 548" d="M141.87,52s4.532,4.072,8.407.722A4.335,4.335,0,0,1,141.87,52Z" transform="translate(1528.326 358.638)" fill="#f4a56e"/>
    <path id="Pfad_549" data-name="Pfad 549" d="M147.473,51.832a15.632,15.632,0,0,1-8.013,2.89c0-.722.46-1.773.394-2.43a20.492,20.492,0,0,0,7.159-1.642C147.67,50.781,147.473,51.832,147.473,51.832Z" transform="translate(1514.906 351.121)" fill="#361d57"/>
    <path id="Pfad_550" data-name="Pfad 550" d="M148.67,54.087a5.189,5.189,0,0,0-7.553-1.708c-2.562,1.511-1.971,3.744,0,3.481s3.218-2.167,6.568-.985C148.867,55.269,149,54.875,148.67,54.087Z" transform="translate(1514.629 355.369)" fill="#f4a56e"/>
    <path id="Pfad_551" data-name="Pfad 551" d="M139.62,54.561h0v-.394a5.254,5.254,0,0,1,3.941-2.627h0a5.189,5.189,0,0,1,3.613,1.839h-.394a4.794,4.794,0,0,0-3.218-1.642h0a4.663,4.663,0,0,0-3.547,2.43Z" transform="translate(1515.797 356.076)" fill="#361d57"/>
    <path id="Pfad_552" data-name="Pfad 552" d="M147.907,52a6.568,6.568,0,0,1-8.407.722C142.259,56.729,146.988,56.466,147.907,52Z" transform="translate(1515.129 358.638)" fill="#f4a56e"/>
    <path id="Pfad_553" data-name="Pfad 553" d="M141.953,52.76a1.182,1.182,0,0,0-1.117,1.314c0,1.248,1.511,1.117,1.642,1.117a1.445,1.445,0,0,1-.526-2.43Z" transform="translate(1522.528 362.87)" fill="#f4a56e"/>
    <g id="Gruppe_9" data-name="Gruppe 9" transform="translate(1648.519 406.631)" opacity="0.4">
      <path id="Pfad_554" data-name="Pfad 554" d="M139.688,53.489c0,.525,0,.92-.591.92s-.525-.394-.525-.92a9.393,9.393,0,0,1,.525-1.839,8.609,8.609,0,0,1,.591,1.839Z" transform="translate(-138.57 -49.942)" fill="#fff"/>
      <path id="Pfad_555" data-name="Pfad 555" d="M139.637,52.769c0,.394,0,.657-.46.657s-.394,0-.394-.657a7.427,7.427,0,0,1,.394-1.379A6.562,6.562,0,0,1,139.637,52.769Z" transform="translate(-137.401 -51.39)" fill="#fff"/>
      <path id="Pfad_556" data-name="Pfad 556" d="M139.013,52.165h0a2.236,2.236,0,0,1,0-.525A2.947,2.947,0,0,1,139.013,52.165Z" transform="translate(-136.187 -49.998)" fill="#fff"/>
    </g>
    <path id="Pfad_557" data-name="Pfad 557" d="M160.741,56.06a36.256,36.256,0,0,0-17.931,7.291c-3.284,3.021,0,21.149-2.1,39.409s-8.276,37.832-5.189,41.9c8.6,11.363,58.653,15.172,67.849,1.051,4.729-7.291.328-27.849-1.576-46.765-1.773-17.668-.854-34.023-3.087-35.928a34.418,34.418,0,0,0-15.763-6.568C181.233,64.007,164.222,65.058,160.741,56.06Z" transform="translate(1488.24 381.244)" fill="#f4b54f"/>
    <path id="Pfad_558" data-name="Pfad 558" d="M143.851,84.468a1.97,1.97,0,0,1-1.511-1.117c-3.744-6.568-1.9-25.878-1.839-26.667a.394.394,0,0,1,.394,0h0a.394.394,0,0,1,.329.394s-1.9,20.1,1.708,26.272c.591.985.985.788,1.117.722,3.087-1.576,6.568-21.74,4.926-25.222a.394.394,0,0,1,0-.525.328.328,0,0,1,.46,0,36.849,36.849,0,0,1-.657,13.793c-.46,2.562-2.233,11.231-4.6,12.414Z" transform="translate(1517.872 384.429)" fill="#d3891e"/>
    <path id="Pfad_559" data-name="Pfad 559" d="M160.036,57.237A36.058,36.058,0,0,0,143.09,76.154c-6.568,14.45-13.99,28.243-8.67,38.489,8.407,16.289,38.423-1.773,42.758-7.685A11.428,11.428,0,0,1,168.9,93.822c-5.123-3.087-8.67.591-10.443.591C168.049,81.474,172.844,51.523,160.036,57.237Z" transform="translate(1476.728 383.811)" fill="#f4b54f"/>
    <path id="Pfad_560" data-name="Pfad 560" d="M166.058,54.994s11.3,27.258-20.69,23.842C129.014,69.575,151.214,53.483,166.058,54.994Z" transform="translate(1515.763 374.757)" fill="#f0f0f0"/>
    <path id="Pfad_561" data-name="Pfad 561" d="M141.86,55.9s8.867-3.35,13.136,2.627c1.314,7.619-.591,8.736-.591,8.736Z" transform="translate(1528.27 375.161)" fill="#f0f0f0" opacity="0.7" style="mix-blend-mode: multiply;isolation: isolate"/>
    <path id="Pfad_562" data-name="Pfad 562" d="M153.763,73.231a14.778,14.778,0,0,0-2.43-17.471s-14.318,12.151-10.049,18.325a31.263,31.263,0,0,0,12.479-.854Z" transform="translate(1520.636 379.574)" fill="#f0f0f0" opacity="0.7" style="mix-blend-mode: multiply;isolation: isolate"/>
    <path id="Pfad_563" data-name="Pfad 563" d="M141.335,57.005c2.167-2.43,5.32-6.9,14.778,1.445a21.74,21.74,0,0,0,17.734,6.568s12.676,16.814-4.072,20.558S141.729,72.44,139.627,73.623C134.307,73.36,135.227,64.165,141.335,57.005Z" transform="translate(1496.414 367.622)" fill="#f0f0f0"/>
    <path id="Pfad_564" data-name="Pfad 564" d="M141.54,56.829A17.143,17.143,0,0,1,149.553,67.8a72.249,72.249,0,0,1-.591,27.849c4.335,1.248,11.56,2.168,13.136-.92a50.969,50.969,0,0,0-3.613-30.476,11.1,11.1,0,0,0-16.946-7.422Z" transform="translate(1526.488 375.68)" fill="#f0f0f0"/>
    <path id="Pfad_565" data-name="Pfad 565" d="M148.961,93.97h0a71.858,71.858,0,0,0,.591-27.783,15.3,15.3,0,0,0-7.291-9.983c-.591-.46-.854-.591-.657-.854h.92a15.961,15.961,0,0,1,7.553,10.312,74.089,74.089,0,0,1-.591,27.98S149.093,93.97,148.961,93.97ZM141.736,55.35Z" transform="translate(1526.489 377.291)" fill="#d3891e"/>
    <path id="Pfad_566" data-name="Pfad 566" d="M144.249,57.731c-2.89-4.269-2.758-.525-6.568,1.182a2.825,2.825,0,0,1-1.511,0,3.35,3.35,0,0,0,3.218,2.365c1.511-.92,7.685,7.422,17.143,10.969C148.19,68.962,146.876,61.672,144.249,57.731Z" transform="translate(1496.587 379.574)" fill="#f0f0f0" opacity="0.7" style="mix-blend-mode: multiply;isolation: isolate"/>
    <path id="Pfad_567" data-name="Pfad 567" d="M159.542,70.143s-10.049-5.254-10.64-3.613,4.6,3.153,3.744,3.81-13.793,0-13.136,1.642,11.428,1.445,11.56,1.642-12.217.591-12.348,2.3,11.363,0,11.3,1.248-10.181.591-9.984,2.167,10.509,0,10.706.657c.657,1.773-6.962,1.379-6.568,2.759a23.317,23.317,0,0,0,18.062-3.547c5.911-3.547,26.272-2.233,26.272-4.795s-2.759-10.312-4.926-9.984S162.169,70.077,159.542,70.143Z" transform="translate(1510.785 427.785)" fill="#f4a56e"/>
    <path id="Pfad_568" data-name="Pfad 568" d="M144.327,65.761h-1.379L141.7,65.17a15.3,15.3,0,0,1,2.167,10.706l1.773-1.051a15.962,15.962,0,0,1,2.759-1.117,3.613,3.613,0,0,0,.919-1.445Z" transform="translate(1527.379 431.97)" fill="#f4a56e"/>
    <path id="Pfad_569" data-name="Pfad 569" d="M145.347,85.386A22.923,22.923,0,0,0,141.8,75.8c14.187-11.626,27.192-14.778,35.665-10.9C189.09,70.017,186.923,95.239,145.347,85.386Z" transform="translate(1527.936 421.671)" fill="#f4b54f"/>
    <path id="Pfad_570" data-name="Pfad 570" d="M166.39,86.853h0a175.031,175.031,0,0,1-20.821-1.379h-.328a23.054,23.054,0,0,0-3.481-9.458h0c13.465-11.034,26.929-15.172,36.059-10.969a.328.328,0,0,1,0,.46.394.394,0,0,1-.525,0c-8.8-4.007-21.872,0-35.008,10.706a22.4,22.4,0,0,1,3.415,9.13c1.773,0,10.837,1.117,20.493,1.314a.328.328,0,0,1,.328.394A.394.394,0,0,1,166.39,86.853Z" transform="translate(1527.713 422.306)" fill="#d3891e"/>
    <path id="Pfad_571" data-name="Pfad 571" d="M162.751,68.152s8.8-7.094,9.721-5.583-3.875,3.941-2.89,4.4,13.136-2.89,13.136-.854-10.969,3.612-11.1,3.875,12.151-1.773,12.611,0-11.1,2.5-10.837,3.415,10.049-1.379,10.181,0S173.26,75.574,173.195,76.1c0,1.9,7.094,0,7.291,1.379a23.448,23.448,0,0,1-18.456,0c-6.568-2.365-26.272,2.824-26.929.394s.722-10.64,2.89-10.772S160.124,68.546,162.751,68.152Z" transform="translate(1489.71 416.311)" fill="#f4a56e"/>
    <path id="Pfad_572" data-name="Pfad 572" d="M142.118,63.974H143.5l1.051-.854a15.763,15.763,0,0,0,0,10.9l-1.971-.657a11.953,11.953,0,0,0-2.956-.525,5.387,5.387,0,0,1-1.182-1.314Z" transform="translate(1509.227 420.555)" fill="#f4a56e"/>
    <path id="Pfad_573" data-name="Pfad 573" d="M172.651,79.49a23.45,23.45,0,0,1,1.708-10.115c-16.158-8.67-29.622-9.261-37.11-3.875C127,72.724,133.7,97.092,172.651,79.49Z" transform="translate(1478.694 414.498)" fill="#f4b54f"/>
    <path id="Pfad_574" data-name="Pfad 574" d="M155.8,86.159a.328.328,0,0,1-.394,0,.394.394,0,0,1,0-.46,89.978,89.978,0,0,0,13.53-6.174,24.5,24.5,0,0,1,1.642-9.721C155.6,61.792,142,60.412,134.12,66.061a.328.328,0,0,1-.525,0,.394.394,0,0,1,0-.525c8.21-5.78,22.2-4.335,37.5,3.875h0a23.055,23.055,0,0,0-1.642,9.918h0A92.809,92.809,0,0,1,155.533,85.9Z" transform="translate(1481.691 414.527)" fill="#d3891e"/>
    <path id="Pfad_575" data-name="Pfad 575" d="M173.639,79.072A90.246,90.246,0,0,1,134.69,70.73h.394a93.858,93.858,0,0,0,69.425,3.153h0a94.974,94.974,0,0,1-30.87,5.189Z" transform="translate(1488.347 462.929)" fill="#f4b54f"/>
    <path id="Pfad_576" data-name="Pfad 576" d="M140.223,97.133h0c4.532-2.233,3.481-24.762,3.481-24.959h0s1.117,23.12-3.744,25.484Z" transform="translate(1517.691 470.483)" fill="#f4b54f"/>
    <path id="Pfad_577" data-name="Pfad 577" d="M139.65,98.272h0A182.715,182.715,0,0,0,140.438,72h0a166.442,166.442,0,0,1-.788,26.272S139.716,98.272,139.65,98.272Z" transform="translate(1515.964 470)" fill="#f4b54f"/>
    <path id="Pfad_578" data-name="Pfad 578" d="M142.9,72.787a1.642,1.642,0,1,1-1.576-1.576,1.576,1.576,0,0,1,1.576,1.576Z" transform="translate(1515.798 465.6)" fill="#f4b54f"/>
    <path id="Pfad_579" data-name="Pfad 579" d="M155.01,57.058a1.051,1.051,0,0,1-.854-.591L141.02,55.219V53.84l13.136,1.314a1.122,1.122,0,0,1,1.971.854A1.117,1.117,0,0,1,155.01,57.058Z" transform="translate(1523.593 368.883)" fill="#fff"/>
    <path id="Pfad_580" data-name="Pfad 580" d="M154.65,54.83a.657.657,0,0,0-.722.394L141.12,53.91V54.5l12.808,1.248a.722.722,0,0,0,.657.525.724.724,0,1,0,.066-1.445Z" transform="translate(1524.15 369.273)" fill="#361d57"/>
    <path id="Pfad_581" data-name="Pfad 581" d="M141.623,57.942a.657.657,0,0,1-.657-.525,3.481,3.481,0,0,1,1.445-3.612.6.6,0,1,1,.854.854h0a2.3,2.3,0,0,0-.854,2.365.591.591,0,0,1-.525.722Z" transform="translate(1522.858 367.671)" fill="#361d57"/>
    <path id="Pfad_582" data-name="Pfad 582" d="M136.7,72.538h0a.328.328,0,0,1,0-.46,113.7,113.7,0,0,0,4.926-12.808.394.394,0,0,1,.723,0,128.5,128.5,0,0,1-4.926,13.136.46.46,0,0,1-.722.131Z" transform="translate(1499.013 397.804)" fill="#d3891e"/>
  </g>
</svg>
