<svg xmlns="http://www.w3.org/2000/svg" width="132.873" height="230.568" viewBox="0 0 132.873 230.568">
  <g id="Gruppe_37" data-name="Gruppe 37" transform="translate(-1677.479 -559.355)">
    <path id="Pfad_585" data-name="Pfad 585" d="M162.262,120.223s20.755,36.65,41.576,24.827c9.918-5.649,10.509-36.519-14.581-65.09C158.649,87.907,162.262,120.223,162.262,120.223Z" transform="translate(1600.135 527.322)" fill="#f4b54f"/>
    <path id="Pfad_586" data-name="Pfad 586" d="M176.547,92.562c0-3.218,4.335-13.136,2.693-14.844s-7.553-2.1-8.933-3.021-4.795-.525-5.057.985c-2.1,1.117-4.335,1.445-3.941,3.415a6.568,6.568,0,0,0,4.007,4.2c-2.693,3.087,0,7.291,1.773,10.181s3.415,36.125,9.458,40.46,20.361-5.452,17.8-9.524a229.293,229.293,0,0,1-17.8-31.855Z" transform="translate(1595.308 495.279)" fill="#f4a56e"/>
    <path id="Pfad_587" data-name="Pfad 587" d="M172.495,77.79l2.627,4.86L168.16,93.488a30.8,30.8,0,0,1-4.795-5.189c-.328-2.759-.657-5.386-.985-7.619a35.8,35.8,0,0,0,10.115-2.89Z" transform="translate(1601.527 515.239)" fill="#f4a56e"/>
    <path id="Pfad_588" data-name="Pfad 588" d="M162.643,79.408h0c-1.708-1.773,0-4.138,0-4.2h0s-1.576,2.233,0,3.809Z" transform="translate(1598.768 500.682)" fill="#361d57"/>
    <path id="Pfad_589" data-name="Pfad 589" d="M166.139,76.289h0a20.031,20.031,0,0,0-4.269-1.839h0a34.307,34.307,0,0,0,3.547,0h.525a13.726,13.726,0,0,1-2.759,0,17.86,17.86,0,0,1,3.021,1.379h0Z" transform="translate(1598.688 496.642)" fill="#361d57"/>
    <path id="Pfad_590" data-name="Pfad 590" d="M174.1,77.86a31.463,31.463,0,0,1-11.823,6.568c1.445,24.959,16.552,47.225,27.061,51.231C201.492,140.454,216.861,113.065,174.1,77.86Z" transform="translate(1600.971 515.629)" fill="#f4b54f"/>
    <path id="Pfad_591" data-name="Pfad 591" d="M197.16,119.9s-20.624,36.716-41.511,24.959c-9.918-5.583-10.64-36.453,14.384-65.156C200.641,87.516,197.16,119.9,197.16,119.9Z" transform="translate(1528.258 525.875)" fill="#f4b54f"/>
    <path id="Pfad_592" data-name="Pfad 592" d="M155.71,85.838a12.348,12.348,0,0,1,15.632-5.714C183.362,83.211,157.615,99.7,155.71,85.838Z" transform="translate(1564.388 523.086)" fill="#f0f0f0"/>
    <path id="Pfad_593" data-name="Pfad 593" d="M160.921,79.35c-.394,0-7.422,2.89-3.218,4.992S164.664,81.32,160.921,79.35Z" transform="translate(1568.045 523.926)" fill="#f0f0f0" opacity="0.7" style="mix-blend-mode: multiply;isolation: isolate"/>
    <path id="Pfad_594" data-name="Pfad 594" d="M179.05,88.745a13.137,13.137,0,0,0-8.736-8.933c-6.568-1.511-12.282,10.246-9.261,16.749S179.773,97.678,179.05,88.745Z" transform="translate(1589.521 525.762)" fill="#f0f0f0"/>
    <path id="Pfad_595" data-name="Pfad 595" d="M168.705,80.56s0,8.276-6.108,7.882C156.423,83.056,166.669,78.261,168.705,80.56Z" transform="translate(1591.853 527.379)" fill="#f0f0f0" opacity="0.7" style="mix-blend-mode: multiply;isolation: isolate"/>
    <path id="Pfad_596" data-name="Pfad 596" d="M163.132,115.506c-4.2,22.069-9.458,79.474-10.772,85.385,11.1,8.8,35.862,5.254,38.489.985,5.189-9.13,2.036-19.245,4.532-18.85,4.269.591,2.956,18.85,9.13,21.149s32.841,5.846,37.767-1.314c-7.159-28.965-7.028-80.065-13.136-93.4C215.677,82.732,169.24,82.206,163.132,115.506Z" transform="translate(1545.735 582.81)" fill="#f0f0f0"/>
    <path id="Pfad_597" data-name="Pfad 597" d="M160.774,87.313s6.568,22.4-3.744,28.374c16.814,14.91,31.593,3.153,30.148-1.445-7.422-8.276-1.314-29.425-3.087-31.593S155.454,69.251,160.774,87.313Z" transform="translate(1571.738 512.022)" fill="#f4a56e"/>
    <path id="Pfad_598" data-name="Pfad 598" d="M180.38,96.554a40.978,40.978,0,0,1-.788-10.706,25.157,25.157,0,0,0-6.568-6.568h-15.3a63.638,63.638,0,0,1,1.182,11.3A19.047,19.047,0,0,0,180.38,96.554Z" transform="translate(1575.58 523.536)" fill="#f4a56e"/>
    <path id="Pfad_599" data-name="Pfad 599" d="M173.917,81.7a6.174,6.174,0,1,1-6.174-6.568A6.568,6.568,0,0,1,173.917,81.7Z" transform="translate(1597.084 500.428)" fill="#361d57"/>
    <path id="Pfad_600" data-name="Pfad 600" d="M172.356,83.53a5.451,5.451,0,1,1-1.081-5.586A5.451,5.451,0,0,1,172.356,83.53Z" transform="translate(1597.003 506.215)" fill="#361d57"/>
    <path id="Pfad_601" data-name="Pfad 601" d="M198.338,97.5c0,13.136-6.568,22.66-19.7,22.857a23.185,23.185,0,0,1-22.069-23.58,20.952,20.952,0,1,1,41.708.723Z" transform="translate(1568.788 495.2)" fill="#f4a56e"/>
    <path id="Pfad_602" data-name="Pfad 602" d="M169.78,83.9a7.094,7.094,0,1,1-7.619-7.422A7.488,7.488,0,0,1,169.78,83.9Z" transform="translate(1563.783 507.944)" fill="#f4a56e"/>
    <path id="Pfad_603" data-name="Pfad 603" d="M159.227,83.358h0a7.028,7.028,0,0,0-1.511-5.452,2.233,2.233,0,0,0-1.576-.657h0a2.89,2.89,0,0,1,2.036.854,7.882,7.882,0,0,1,1.642,5.846Z" transform="translate(1566.782 512.233)" fill="#361d57"/>
    <path id="Pfad_604" data-name="Pfad 604" d="M157.958,80.964h-.526a1.839,1.839,0,0,1-1.117-2.1,1.314,1.314,0,0,1,.723-.985,1.445,1.445,0,0,1,1.182,0v.394H157.17c-.263,0-.328,0-.46.591a1.314,1.314,0,0,0,.788,1.445h1.051V80.7a.986.986,0,0,1-.591.263Z" transform="translate(1567.526 515.021)" fill="#361d57"/>
    <path id="Pfad_605" data-name="Pfad 605" d="M158.4,99.113s3.941-1.314,4.795,4.335,2.627,6.568,2.956,3.415,0-8.144,1.182-10.246,4.466.985,9.787-6.043a8.342,8.342,0,0,0,11.757-1.314c-.788,4.335,8.6,5.911,9.392,2.365,8.867,6.962,13.859-11.166.985-9.984a6.568,6.568,0,0,0-12.085-3.153c-3.218-8.407-17.668-7.816-17.537,2.43C164.111,75.27,149.6,83.481,158.4,99.113Z" transform="translate(1563.935 486.692)" fill="#361d57"/>
    <path id="Pfad_606" data-name="Pfad 606" d="M160.653,88.681h0v-.394a2.956,2.956,0,0,0,1.839-1.445,6.047,6.047,0,0,0,0-2.233,34.284,34.284,0,0,1-.591-7.159h0a32.838,32.838,0,0,0,.591,6.962c0,1.379.394,2.233,0,2.627a3.415,3.415,0,0,1-2.1,1.708Z" transform="translate(1590.447 513.346)" fill="#361d57"/>
    <path id="Pfad_607" data-name="Pfad 607" d="M159.392,83.085A6.043,6.043,0,0,1,163.4,79.67a6.568,6.568,0,0,1,5.517.657c.854.525,4.2,2.89,2.627,4.335a.656.656,0,0,1-.657,0h0a20.693,20.693,0,0,0-4.007-.854,16.422,16.422,0,0,0-4.335.591c-.723,0-3.481.854-3.153-1.117C159.326,83.676,159.326,83.216,159.392,83.085Z" transform="translate(1584.614 523.869)" fill="#361d57"/>
    <path id="Pfad_608" data-name="Pfad 608" d="M161.666,81.733a16.551,16.551,0,0,0,8.407-4.007c-.526-.591-1.708-1.051-2.167-1.576a25.025,25.025,0,0,1-6.568,4.335C160.747,81.076,161.666,81.733,161.666,81.733Z" transform="translate(1594.622 506.108)" fill="#361d57"/>
    <path id="Pfad_609" data-name="Pfad 609" d="M161.177,80.725a5.78,5.78,0,0,1,8.013-2.956c3.021,1.314,2.627,3.875.591,3.875s-3.875-1.97-7.488,0C161.111,81.973,160.914,81.644,161.177,80.725Z" transform="translate(1594.258 511.516)" fill="#f4a56e"/>
    <path id="Pfad_610" data-name="Pfad 610" d="M161.2,80.435h0v-.394c0-.394,3.153-3.153,5.977-2.759a3.744,3.744,0,0,1,2.824,2.1v.394h-.394a3.218,3.218,0,0,0-2.365-1.9c-2.5,0-5.517,2.627-5.517,2.627Z" transform="translate(1594.957 512.2)" fill="#361d57"/>
    <path id="Pfad_611" data-name="Pfad 611" d="M161.13,78.28s5.583,3.744,9.261-.46a4.795,4.795,0,0,1-9.261.46Z" transform="translate(1594.567 515.406)" fill="#f4a56e"/>
    <path id="Pfad_612" data-name="Pfad 612" d="M168.7,80.706a5.911,5.911,0,0,0-8.079-2.956c-3.021,1.314-2.627,3.875-.525,3.875s3.809-1.97,7.422,0C168.7,81.954,168.7,81.625,168.7,80.706Z" transform="translate(1579.575 511.535)" fill="#f4a56e"/>
    <path id="Pfad_613" data-name="Pfad 613" d="M167.044,80.488h0s-3.021-2.956-5.517-2.627a3.218,3.218,0,0,0-2.365,1.9h-.394c-.394,0,0,0,0-.394a3.547,3.547,0,0,1,2.759-2.1c2.824-.394,5.846,2.627,5.977,2.759s0,0,0,.394S167.11,80.488,167.044,80.488Z" transform="translate(1580.443 512.147)" fill="#361d57"/>
    <path id="Pfad_614" data-name="Pfad 614" d="M167.851,78.28s-5.517,3.744-9.261-.46a4.795,4.795,0,0,0,9.261.46Z" transform="translate(1580.424 515.406)" fill="#f4a56e"/>
    <path id="Pfad_615" data-name="Pfad 615" d="M167.041,81.176a16.814,16.814,0,0,1-8.8-3.153c.46-.591,1.576-1.182,2.036-1.773a24.366,24.366,0,0,0,7.159,3.612C167.9,80.322,167.041,81.176,167.041,81.176Z" transform="translate(1578.476 506.664)" fill="#361d57"/>
    <path id="Pfad_616" data-name="Pfad 616" d="M161.276,78.7a1.3,1.3,0,0,0-1.314,1.445c.066,1.445,1.708,1.248,1.839,1.248a1.576,1.576,0,0,1-.525-2.693Z" transform="translate(1588.051 520.306)" fill="#f4a56e"/>
    <g id="Gruppe_11" data-name="Gruppe 11" transform="translate(1731.919 589.089)" opacity="0.4">
      <path id="Pfad_617" data-name="Pfad 617" d="M158.759,79.516c0,.525,0,.985-.657.985s-.591-.46-.591-.985a9.919,9.919,0,0,1,.591-2.036,9.184,9.184,0,0,1,.657,2.036Z" transform="translate(-157.51 -75.575)" fill="#fff"/>
      <path id="Pfad_618" data-name="Pfad 618" d="M158.66,78.766c0,.394,0,.723-.46.723s-.46-.328-.46-.723a7.948,7.948,0,0,1,.46-1.576A7.946,7.946,0,0,1,158.66,78.766Z" transform="translate(-156.228 -77.19)" fill="#fff"/>
      <path id="Pfad_619" data-name="Pfad 619" d="M158.009,78.061h0a4.172,4.172,0,0,1,0-.591,3.029,3.029,0,0,1,0,.591Z" transform="translate(-154.789 -75.631)" fill="#fff"/>
    </g>
    <path id="Pfad_620" data-name="Pfad 620" d="M163.248,79.4a5.649,5.649,0,0,0-3.875,3.35h0c-.328,1.97,2.43,1.248,3.153,1.117a16.42,16.42,0,0,1,4.335-.591,20.7,20.7,0,0,1,4.007.854h0A8.473,8.473,0,0,0,163.248,79.4Z" transform="translate(1584.633 524.204)" fill="#361d57"/>
    <path id="Pfad_621" data-name="Pfad 621" d="M183.351,82.33a39.933,39.933,0,0,0-19.7,8.013c-7.422,6.568-14.778,80.591-8.013,89.458,9.458,12.479,64.5,16.683,74.614,1.117s0-86.633-5.123-90.968a37.5,37.5,0,0,0-17.34-7.094C205.748,91.066,187.226,92.248,183.351,82.33Z" transform="translate(1549.095 540.519)" fill="#f4b54f"/>
    <path id="Pfad_622" data-name="Pfad 622" d="M163.242,113.912a1.97,1.97,0,0,1-1.642-1.248c-4.2-7.028-2.1-28.44-2.036-29.359a.46.46,0,0,1,.46-.394s.394,0,.328.46-2.1,22.069,1.9,28.834c.657,1.117,1.117.854,1.248.788,3.415-1.708,7.094-23.908,5.452-27.783v-.525a.394.394,0,0,1,.525,0c1.773,4.2-2.036,26.929-5.78,28.834A1.908,1.908,0,0,1,163.242,113.912Z" transform="translate(1582.603 543.748)" fill="#d3891e"/>
    <path id="Pfad_623" data-name="Pfad 623" d="M187.873,81.15s12.414,30.082-22.791,26.272C146.822,97.242,171.518,79.508,187.873,81.15Z" transform="translate(1580.698 533.357)" fill="#f0f0f0"/>
    <path id="Pfad_624" data-name="Pfad 624" d="M161.13,82.16s9.787-3.678,14.253,2.89c1.445,8.341-.657,9.589-.657,9.589Z" transform="translate(1594.567 533.857)" fill="#f0f0f0" opacity="0.7" style="mix-blend-mode: multiply;isolation: isolate"/>
    <path id="Pfad_625" data-name="Pfad 625" d="M174.238,101.245A16.355,16.355,0,0,0,171.545,82s-15.763,13.136-11.034,20.23A34.681,34.681,0,0,0,174.238,101.245Z" transform="translate(1586.189 538.681)" fill="#f0f0f0" opacity="0.7" style="mix-blend-mode: multiply;isolation: isolate"/>
    <path id="Pfad_626" data-name="Pfad 626" d="M160.578,83.379c2.365-2.693,5.846-7.553,16.289,1.511a23.908,23.908,0,0,0,19.7,7.159s13.99,18.522-4.466,22.594-30.8-14.581-33.169-13.136C152.828,101.7,153.682,91.261,160.578,83.379Z" transform="translate(1559.52 525.545)" fill="#f0f0f0"/>
    <path id="Pfad_627" data-name="Pfad 627" d="M160.78,83.216a18.917,18.917,0,0,1,8.8,11.691,78.818,78.818,0,0,1-.788,30.8c4.795,1.314,12.742,2.365,14.384-.985a56.485,56.485,0,0,0-4.006-33.563C174.31,78.093,162.225,80.852,160.78,83.216Z" transform="translate(1592.619 534.378)" fill="#f0f0f0"/>
    <path id="Pfad_628" data-name="Pfad 628" d="M168.953,124.026h0a80.589,80.589,0,0,0,.657-30.542A17.273,17.273,0,0,0,161.6,82.45c-.657-.394-.985-.591-.788-.92h.394s.328,0,.591.46a17.537,17.537,0,0,1,8.21,11.3,82.558,82.558,0,0,1-.591,30.8A.46.46,0,0,1,168.953,124.026Z" transform="translate(1592.459 536.064)" fill="#d3891e"/>
    <path id="Pfad_629" data-name="Pfad 629" d="M163.626,84.145c-3.153-4.663-3.021-.525-7.159,1.314a2.1,2.1,0,0,1-1.576,0,3.612,3.612,0,0,0,3.481,2.627c1.642-1.051,8.407,8.21,18.85,12.085C168.026,96.493,166.581,88.546,163.626,84.145Z" transform="translate(1559.822 538.704)" fill="#f0f0f0" opacity="0.7" style="mix-blend-mode: multiply;isolation: isolate"/>
    <path id="Pfad_630" data-name="Pfad 630" d="M170.235,92.292c0-3.218-4.335-13.136-2.759-14.778s7.553-2.168,8.933-3.087,4.795-.525,5.057.985c2.1,1.051,4.335,1.379,4.007,3.35a6.568,6.568,0,0,1-4.007,4.269c2.627,3.087,0,7.291-1.773,10.181s-3.218,36.125-9.261,40.525-20.427-5.386-17.865-9.524a216.742,216.742,0,0,0,17.668-31.921Z" transform="translate(1545.2 493.775)" fill="#f4a56e"/>
    <path id="Pfad_631" data-name="Pfad 631" d="M155.06,129.387c3.875-2.824,5.78-17.734,7.225-28.637a50.064,50.064,0,0,1,2.1-11.823c1.97-2.89,4.335-7.028,1.708-10.049h.328A6.568,6.568,0,0,0,170.3,74.74h0a6.569,6.569,0,0,1-3.875,4.269c2.43,3.153,0,7.291-1.9,10.181a57.522,57.522,0,0,0-2.036,11.691c-1.445,10.969-3.35,26.272-7.291,28.9Z" transform="translate(1560.769 498.257)" fill="#361d57"/>
    <path id="Pfad_632" data-name="Pfad 632" d="M156.947,77.52c-.722,1.445-1.642,3.087-2.627,4.926l6.962,10.772a27.974,27.974,0,0,0,4.795-5.189,50.029,50.029,0,0,1,.985-7.619A35.8,35.8,0,0,1,156.947,77.52Z" transform="translate(1556.649 513.736)" fill="#f4a56e"/>
    <path id="Pfad_633" data-name="Pfad 633" d="M156.61,78.78h0a3.021,3.021,0,0,0,0-3.81h0s1.708,2.43,0,4.2Z" transform="translate(1569.4 499.537)" fill="#361d57"/>
    <path id="Pfad_634" data-name="Pfad 634" d="M156.1,75.629h0a17.863,17.863,0,0,1,3.021-1.379,21.344,21.344,0,0,1-2.758,0h0a23.969,23.969,0,0,0,4.007,0h0a20.031,20.031,0,0,0-4.269,1.839Z" transform="translate(1566.56 495.528)" fill="#361d57"/>
    <path id="Pfad_635" data-name="Pfad 635" d="M178.291,77.6a32.843,32.843,0,0,0,11.888,6.568c-1.314,24.959-16.355,47.29-26.864,51.363C151.165,140.26,135.73,113.068,178.291,77.6Z" transform="translate(1534.188 514.181)" fill="#f4b54f"/>
    <path id="Pfad_636" data-name="Pfad 636" d="M196.064,107.9a100.359,100.359,0,0,1-42.824-9.13V98.38h.328a103.907,103.907,0,0,0,76.453,3.481h.328v.394a106.207,106.207,0,0,1-34.286,5.649Z" transform="translate(1550.635 629.887)" fill="#f4b54f"/>
    <path id="Pfad_637" data-name="Pfad 637" d="M159.348,127.779h0v-.394c5.057-2.43,3.875-27.192,3.809-27.455h0c0,1.051,1.248,25.419-4.138,28.046Z" transform="translate(1582.819 638.517)" fill="#f4b54f"/>
    <path id="Pfad_638" data-name="Pfad 638" d="M158.756,129.185h0v-.394a191.152,191.152,0,0,0,.788-29.031h0a202.242,202.242,0,0,1-.854,29.228S158.887,129.185,158.756,129.185Z" transform="translate(1580.981 637.571)" fill="#f4b54f"/>
    <path id="Pfad_639" data-name="Pfad 639" d="M162.1,100.8a1.708,1.708,0,1,1-1.379-1.773A1.642,1.642,0,0,1,162.1,100.8Z" transform="translate(1580.984 633.312)" fill="#f4b54f"/>
    <path id="Pfad_640" data-name="Pfad 640" d="M153.35,109.734h0a.328.328,0,0,1,0-.46,193.916,193.916,0,0,1,5.189-23.12s0-.394.46-.328a.46.46,0,0,1,.328.525,195.074,195.074,0,0,0-5.189,23.054.427.427,0,0,1-.788.328Z" transform="translate(1550.722 559.945)" fill="#d3891e"/>
    <path id="Pfad_641" data-name="Pfad 641" d="M169.6,122.558a.394.394,0,0,1-.394-.394c-1.511-13.136-4.729-37.7-4.795-37.964s0-.46.394-.46.394,0,.46.328,3.284,24.5,4.729,38.029a.328.328,0,0,1-.328.46Z" transform="translate(1612.701 548.37)" fill="#d3891e"/>
    <path id="Pfad_642" data-name="Pfad 642" d="M149.564,134.705h0a.328.328,0,0,1-.328-.394c2.364-30.87,34.482-56.42,34.745-56.683a.421.421,0,0,1,.526.657c-.328,0-32.118,25.55-34.483,56.092a.394.394,0,0,1-.46.328Z" transform="translate(1528.301 513.825)" fill="#7f6881"/>
  </g>
</svg>
