<svg xmlns="http://www.w3.org/2000/svg" xmlns:xlink="http://www.w3.org/1999/xlink" width="118.009" height="242.843" viewBox="0 0 118.009 242.843">
  <defs>
    <linearGradient id="linear-gradient" x1="0.509" y1="1.155" x2="0.509" y2="-0.035" gradientUnits="objectBoundingBox">
      <stop offset="0" stop-color="#fff"/>
      <stop offset="0.14" stop-color="#fffbfa"/>
      <stop offset="0.29" stop-color="#fdf0ec"/>
      <stop offset="0.46" stop-color="#fbddd6"/>
      <stop offset="0.63" stop-color="#f8c3b5"/>
      <stop offset="0.8" stop-color="#f4a18c"/>
      <stop offset="0.98" stop-color="#f0795b"/>
      <stop offset="1" stop-color="#ef7455"/>
    </linearGradient>
    <linearGradient id="linear-gradient-2" x1="0.5" y1="1.015" x2="0.5" y2="0.051" gradientUnits="objectBoundingBox">
      <stop offset="0" stop-color="#fff"/>
      <stop offset="0.19" stop-color="#fffcfc"/>
      <stop offset="0.34" stop-color="#fef4f2"/>
      <stop offset="0.49" stop-color="#fce6e1"/>
      <stop offset="0.62" stop-color="#fad3c9"/>
      <stop offset="0.75" stop-color="#f7b9aa"/>
      <stop offset="0.87" stop-color="#f39a84"/>
      <stop offset="0.99" stop-color="#ef7658"/>
      <stop offset="1" stop-color="#ef7455"/>
    </linearGradient>
  </defs>
  <g id="Gruppe_35" data-name="Gruppe 35" transform="translate(-1515.878 -557.621)">
    <path id="Pfad_400" data-name="Pfad 400" d="M162.751,110.177s12.282-6.568,26.272,27.192c8.407,20.493,11.954,41.708,3.416,41.248C166.1,177.566,152.5,133.494,162.751,110.177Z" transform="translate(1436.539 520.704)" fill="#f4b54f"/>
    <path id="Pfad_401" data-name="Pfad 401" d="M152.14,112.453a13.136,13.136,0,0,1,16.42-6.043C181.171,109.629,154.11,126.969,152.14,112.453Z" transform="translate(1396.51 497.475)" fill="#f0f0f0"/>
    <path id="Pfad_402" data-name="Pfad 402" d="M157.634,105.65c-.394,0-7.816,3.021-3.415,5.189S161.509,107.949,157.634,105.65Z" transform="translate(1400.343 498.367)" fill="#f0f0f0" opacity="0.7" style="mix-blend-mode: multiply;isolation: isolate"/>
    <path id="Pfad_403" data-name="Pfad 403" d="M176.758,115.52a14.187,14.187,0,0,0-9.2-9.392c-6.962-1.576-13.136,10.706-9.721,17.537S177.415,124.912,176.758,115.52Z" transform="translate(1422.861 500.254)" fill="#f0f0f0"/>
    <path id="Pfad_404" data-name="Pfad 404" d="M165.792,106.96s-.328,8.67-6.568,8.276C153.05,109.587,163.69,104.4,165.792,106.96Z" transform="translate(1425.354 501.917)" fill="#f0f0f0" opacity="0.7" style="mix-blend-mode: multiply;isolation: isolate"/>
    <path id="Pfad_405" data-name="Pfad 405" d="M159.887,143.594c-4.4,23.12-9.918,83.481-11.3,89.983,11.626,9.2,37.7,5.452,40.46.985,5.452-9.524,2.1-20.23,4.729-19.7,4.466.723,3.087,19.7,9.589,22.266s34.548,6.174,39.409-1.379c-7.553-30.476-7.356-84.072-14.121-98.062C215.256,109.112,166.587,108.586,159.887,143.594Z" transform="translate(1376.743 560.192)" fill="#f0f0f0"/>
    <path id="Pfad_406" data-name="Pfad 406" d="M157.471,113.727s6.568,23.579-3.941,29.819c17.668,15.632,33.169,3.35,31.658-1.511-7.816-8.67-1.379-30.87-3.218-32.841S151.888,94.942,157.471,113.727Z" transform="translate(1404.25 486.021)" fill="#f4a56e"/>
    <path id="Pfad_407" data-name="Pfad 407" d="M178.027,123.865a42.5,42.5,0,0,1-.788-11.3,25.745,25.745,0,0,0-6.9-7.028H154.25a57.331,57.331,0,0,1,1.248,11.888,19.7,19.7,0,0,0,22.529,6.437Z" transform="translate(1408.259 497.754)" fill="#f4a56e"/>
    <path id="Pfad_408" data-name="Pfad 408" d="M171.416,107.828a6.568,6.568,0,1,1-6.568-6.568A6.568,6.568,0,0,1,171.416,107.828Z" transform="translate(1430.698 473.923)" fill="#361d57"/>
    <path id="Pfad_409" data-name="Pfad 409" d="M169.466,109.842a5.78,5.78,0,0,1-7.094,4.2,5.911,5.911,0,0,1-3.81-7.356,5.78,5.78,0,0,1,7.159-4.138,5.714,5.714,0,0,1,3.744,7.291Z" transform="translate(1430.809 479.922)" fill="#361d57"/>
    <path id="Pfad_410" data-name="Pfad 410" d="M166.981,110.381a7.488,7.488,0,1,1-7.948-7.75,7.816,7.816,0,0,1,7.947,7.75Z" transform="translate(1395.791 481.55)" fill="#f4a56e"/>
    <path id="Pfad_411" data-name="Pfad 411" d="M166.981,110.381a7.488,7.488,0,1,1-7.948-7.75,7.816,7.816,0,0,1,7.947,7.75Z" transform="translate(1395.791 481.55)" fill="url(#linear-gradient)" style="mix-blend-mode: multiply;isolation: isolate"/>
    <path id="Pfad_412" data-name="Pfad 412" d="M196.9,125.3c0,13.136-7.094,23.842-20.624,23.974a24.368,24.368,0,0,1-23.185-24.762,22.069,22.069,0,1,1,43.809.788Z" transform="translate(1401.144 467.884)" fill="#f4a56e"/>
    <path id="Pfad_413" data-name="Pfad 413" d="M196.9,125.3c0,13.136-7.094,23.842-20.624,23.974a24.368,24.368,0,0,1-23.185-24.762,22.069,22.069,0,1,1,43.809.788Z" transform="translate(1401.144 467.884)" fill="url(#linear-gradient-2)" style="mix-blend-mode: multiply;isolation: isolate"/>
    <path id="Pfad_414" data-name="Pfad 414" d="M156.375,109.867h-.328a7.619,7.619,0,0,0-1.511-5.714,2.364,2.364,0,0,0-1.708-.723h0a.459.459,0,0,1-.328,0h.328a2.889,2.889,0,0,1,2.036.92,7.815,7.815,0,0,1,1.773,6.108Z" transform="translate(1398.515 486.006)" fill="#361d57"/>
    <path id="Pfad_415" data-name="Pfad 415" d="M154.482,107.3a.787.787,0,0,1-.525,0,1.9,1.9,0,0,1-1.182-2.168,1.511,1.511,0,0,1,.788-1.051,1.707,1.707,0,0,1,1.248,0v.525h0a1.248,1.248,0,0,0-.788,0l-.394.657a1.314,1.314,0,0,0,.788,1.511h1.051v.394A.92.92,0,0,1,154.482,107.3Z" transform="translate(1399.817 488.968)" fill="#361d57"/>
    <path id="Pfad_416" data-name="Pfad 416" d="M154.973,126.591s4.072-1.379,5.057,4.532,2.759,6.568,3.087,3.547-.328-8.539,1.248-10.706,4.663,1.051,10.246-6.568c4.6,2.627,9.721,2.759,12.348-1.379-.788,4.532,9.064,6.568,9.918,2.5,9.261,7.291,14.516-11.757.985-10.443a6.587,6.587,0,1,0-12.742-3.35c-3.284-8.867-18.522-8.21-18.391,2.561C160.95,101.3,145.712,110.105,154.973,126.591Z" transform="translate(1396.042 459.035)" fill="#361d57"/>
    <path id="Pfad_417" data-name="Pfad 417" d="M157.369,115.417h0a.393.393,0,0,1,0-.394,3.021,3.021,0,0,0,1.9-1.511,6.568,6.568,0,0,0,0-2.365,32.45,32.45,0,0,1-.657-7.488h0a31.985,31.985,0,0,0,.657,7.356c0,1.445.394,2.3,0,2.758a3.613,3.613,0,0,1-2.233,1.773Z" transform="translate(1423.794 487.286)" fill="#361d57"/>
    <path id="Pfad_418" data-name="Pfad 418" d="M157.891,103.909a17.865,17.865,0,0,0,9.261,3.284c0-.788-.525-2.036-.46-2.759a26.274,26.274,0,0,1-8.276-1.9C157.694,102.727,157.891,103.909,157.891,103.909Z" transform="translate(1428.395 480.994)" fill="#361d57"/>
    <path id="Pfad_419" data-name="Pfad 419" d="M157.955,106.475a6.108,6.108,0,0,1,8.8-1.97c2.956,1.708,2.233,4.335,0,4.072s-3.744-2.5-7.75-1.182C157.758,107.789,157.561,107.329,157.955,106.475Z" transform="translate(1427.871 485.851)" fill="#f4a56e"/>
    <path id="Pfad_420" data-name="Pfad 420" d="M166.354,106.975h0a5.649,5.649,0,0,0-4.138-2.824h0a5.517,5.517,0,0,0-3.744,1.9h-.394c-.394,0,0,0,0-.394a6.569,6.569,0,0,1,4.2-2.1h0a6.568,6.568,0,0,1,4.6,3.021.394.394,0,0,1,0,.46Z" transform="translate(1428.601 486.73)" fill="#361d57"/>
    <path id="Pfad_421" data-name="Pfad 421" d="M157.85,104.07s5.254,4.729,9.721.854a5.058,5.058,0,0,1-9.721-.854Z" transform="translate(1428.304 489.569)" fill="#f4a56e"/>
    <path id="Pfad_422" data-name="Pfad 422" d="M164.331,103.9a17.537,17.537,0,0,1-9.261,3.284c0-.788.46-2.036.46-2.759a26.273,26.273,0,0,0,8.276-1.9C164.462,102.717,164.331,103.9,164.331,103.9Z" transform="translate(1412.825 480.939)" fill="#361d57"/>
    <path id="Pfad_423" data-name="Pfad 423" d="M165.759,106.475a6.108,6.108,0,0,0-8.8-1.97c-2.956,1.708-2.233,4.335,0,4.072s3.744-2.5,7.75-1.182C165.956,107.789,166.153,107.329,165.759,106.475Z" transform="translate(1412.448 485.851)" fill="#f4a56e"/>
    <path id="Pfad_424" data-name="Pfad 424" d="M155.313,107.031h0a.4.4,0,0,1,0-.46,6.568,6.568,0,0,1,4.6-3.021h0a6.109,6.109,0,0,1,4.2,2.1v.394h-.394a5.517,5.517,0,0,0-3.744-1.9h0a5.648,5.648,0,0,0-4.138,2.824S155.378,107.031,155.313,107.031Z" transform="translate(1413.764 486.674)" fill="#361d57"/>
    <path id="Pfad_425" data-name="Pfad 425" d="M164.831,104.07a7.882,7.882,0,0,1-9.721.854C158.328,109.653,163.714,109.325,164.831,104.07Z" transform="translate(1413.047 489.569)" fill="#f4a56e"/>
    <path id="Pfad_426" data-name="Pfad 426" d="M157.931,105a1.3,1.3,0,0,0-1.314,1.511c.131,1.511,1.708,1.314,1.9,1.314a1.642,1.642,0,0,1-.591-2.824Z" transform="translate(1421.392 494.748)" fill="#f4a56e"/>
    <g id="Gruppe_5" data-name="Gruppe 5" transform="translate(1561.064 589.107)" opacity="0.4">
      <path id="Pfad_427" data-name="Pfad 427" d="M155.344,105.837c0,.525,0,.985-.657.985s-.657-.46-.657-.985a9.66,9.66,0,0,1,.657-2.167,9.654,9.654,0,0,1,.657,2.167Z" transform="translate(-154.03 -101.765)" fill="#fff"/>
      <path id="Pfad_428" data-name="Pfad 428" d="M155.255,104.956c0,.46,0,.788-.46.788s-.525,0-.525-.788a7.228,7.228,0,0,1,.525-1.576A7.953,7.953,0,0,1,155.255,104.956Z" transform="translate(-152.694 -103.38)" fill="#fff"/>
      <path id="Pfad_429" data-name="Pfad 429" d="M154.681,104.261h0a.328.328,0,1,1,.394,0Z" transform="translate(-151.134 -101.765)" fill="#fff"/>
    </g>
    <path id="Pfad_430" data-name="Pfad 430" d="M179.655,108.77a41.9,41.9,0,0,0-20.755,8.473c-3.81,3.481-.329,24.368-2.365,45.451s-9.655,43.744-6.043,48.407c9.984,13.136,67.783,17.537,78.423,1.248,5.452-8.473.394-32.184-1.839-54.056-2.036-20.427-.985-39.409-3.547-41.51A39.934,39.934,0,0,0,205.27,109.3C203.3,117.965,183.661,119.213,179.655,108.77Z" transform="translate(1382 515.739)" fill="#f4b54f"/>
    <path id="Pfad_431" data-name="Pfad 431" d="M160.153,141.892c-.525,0-1.117,0-1.773-1.248-4.335-7.356-2.167-29.885-2.1-30.87a.591.591,0,0,1,.525-.394s.394,0,.328.46-2.167,23.251,2.036,30.345c.657,1.117,1.117.854,1.314.788,3.547-1.839,7.422-25.09,5.649-29.162a.372.372,0,0,1,.526-.525c1.9,4.4-2.168,28.243-6.043,30.279Z" transform="translate(1416.214 519.136)" fill="#d3891e"/>
    <path id="Pfad_432" data-name="Pfad 432" d="M179,110.137a41.643,41.643,0,0,0-19.7,21.872c-7.75,16.683-16.158,32.841-10.049,44.532,9.721,18.851,44.466-2.1,49.524-8.933a13.136,13.136,0,0,1-9.589-15.5c-5.911-3.547-10.049.657-12.085.657C188.4,138.183,193.585,103.5,179,110.137Z" transform="translate(1368.727 518.707)" fill="#f4b54f"/>
    <path id="Pfad_433" data-name="Pfad 433" d="M185.959,107.54s13.136,31.527-23.974,27.586C142.806,124.355,168.75,105.767,185.959,107.54Z" transform="translate(1413.66 508.234)" fill="#f0f0f0"/>
    <path id="Pfad_434" data-name="Pfad 434" d="M157.84,108.6s10.246-3.875,14.91,3.021c1.511,8.736-.657,10.049-.657,10.049Z" transform="translate(1428.248 508.75)" fill="#f0f0f0" opacity="0.7" style="mix-blend-mode: multiply;isolation: isolate"/>
    <path id="Pfad_435" data-name="Pfad 435" d="M171.579,128.715a17.208,17.208,0,0,0-2.824-20.3S152.2,122.476,157.2,129.7A38.094,38.094,0,0,0,171.579,128.715Z" transform="translate(1419.435 513.79)" fill="#f0f0f0" opacity="0.7" style="mix-blend-mode: multiply;isolation: isolate"/>
    <path id="Pfad_436" data-name="Pfad 436" d="M157.359,109.925c2.5-2.89,6.174-8.013,17.143,1.576a25.025,25.025,0,0,0,20.427,7.488s14.647,19.7-4.729,23.777-32.381-15.369-34.811-13.859C149.214,128.775,149.871,118.135,157.359,109.925Z" transform="translate(1391.292 500.003)" fill="#f0f0f0"/>
    <path id="Pfad_437" data-name="Pfad 437" d="M157.47,109.691a20.1,20.1,0,0,1,9.261,12.282,83.8,83.8,0,0,1-.723,32.249c5.057,1.379,13.136,2.43,15.107-1.051a59.113,59.113,0,0,0-4.2-35.271C171.657,104.305,158.981,107.261,157.47,109.691Z" transform="translate(1426.188 509.301)" fill="#f0f0f0"/>
    <path id="Pfad_438" data-name="Pfad 438" d="M166.062,152.737h0a84.6,84.6,0,0,0,.657-32.118,17.931,17.931,0,0,0-8.407-11.56c-.723-.46-.985-.657-.788-.985s0,0,.394,0h0l.591.394a18.588,18.588,0,0,1,8.67,11.888,83.941,83.941,0,0,1-.657,32.381.328.328,0,0,1-.46,0Z" transform="translate(1426.135 511.05)" fill="#d3891e"/>
    <path id="Pfad_439" data-name="Pfad 439" d="M160.475,110.694c-3.284-4.926-3.218-.591-7.553,1.379a2.89,2.89,0,0,1-1.642,0,3.678,3.678,0,0,0,3.678,2.693c1.708-1.051,8.867,8.6,19.7,12.742C165.073,123.634,163.562,115.292,160.475,110.694Z" transform="translate(1391.722 513.815)" fill="#f0f0f0" opacity="0.7" style="mix-blend-mode: multiply;isolation: isolate"/>
    <path id="Pfad_440" data-name="Pfad 440" d="M178.194,125.071s-11.56-6.043-12.282-4.138,5.255,3.613,4.269,4.4-15.895,0-14.844,1.839,13.136,1.708,13.136,1.9c.788,1.314-14.187.723-14.253,2.693s13.136.394,13.136,1.445-11.757.723-11.56,2.5,12.217,0,12.414.788c.788,2.036-8.013,1.576-7.947,3.153s11.56,1.642,20.952-4.072c6.568-4.138,30.345-2.562,30.607-5.517s-3.153-11.954-5.649-11.626S181.281,125.005,178.194,125.071Z" transform="translate(1408.092 569.52)" fill="#f4a56e"/>
    <path id="Pfad_441" data-name="Pfad 441" d="M160.616,120.022h-1.576l-1.379-.722a18.456,18.456,0,0,1,2.43,12.414l2.1-1.182a11.369,11.369,0,0,1,3.219-1.248,4.531,4.531,0,0,0,.985-1.708Z" transform="translate(1427.246 574.372)" fill="#f4a56e"/>
    <path id="Pfad_442" data-name="Pfad 442" d="M161.964,142.647a26.273,26.273,0,0,0-4.2-11.1c16.42-13.136,31.527-17.077,41.248-12.611C211.881,124.913,209.977,154.01,161.964,142.647Z" transform="translate(1427.803 562.519)" fill="#f4b54f"/>
    <path id="Pfad_443" data-name="Pfad 443" d="M186.216,144.52h0a205.869,205.869,0,0,1-24.039-1.576h-.394a26.926,26.926,0,0,0-4.072-10.9v-.328h0c15.566-12.742,31.133-17.471,41.708-12.676a.46.46,0,0,1,0,.591.394.394,0,0,1-.525,0c-10.181-4.663-25.353,0-40.525,12.348a29.622,29.622,0,0,1,4.006,10.575c1.971,0,12.414,1.314,23.645,1.511a.329.329,0,1,1,.2.46Z" transform="translate(1427.525 562.682)" fill="#d3891e"/>
    <path id="Pfad_444" data-name="Pfad 444" d="M182.207,122.81s10.181-8.144,11.232-6.568-4.466,4.6-3.35,5.123,15.5-3.35,14.91-.985-12.676,4.138-12.742,4.4c-.526,1.445,14.056-2.036,14.516,0s-12.742,2.89-12.545,3.941,11.691-1.576,11.823,0-11.954,2.562-12.02,3.153c-.328,2.167,8.21,0,8.407,1.642s-11.034,3.81-21.346,0c-7.422-2.759-30.213,3.284-31.067.46s.788-12.348,3.284-12.479S179.12,123.27,182.207,122.81Z" transform="translate(1383.455 556.215)" fill="#f4a56e"/>
    <path id="Pfad_445" data-name="Pfad 445" d="M157.988,117.915h1.642l1.248-.985a18.063,18.063,0,0,0,0,12.611l-2.3-.723a14.388,14.388,0,0,0-3.35-.657,4.791,4.791,0,0,1-1.379-1.445Z" transform="translate(1406.032 561.175)" fill="#f4a56e"/>
    <path id="Pfad_446" data-name="Pfad 446" d="M193.371,135.862a26.275,26.275,0,0,1,1.97-11.691c-18.719-10.049-34.22-10.706-42.89-4.466C140.695,128.046,148.445,156.223,193.371,135.862Z" transform="translate(1370.911 554.197)" fill="#f4b54f"/>
    <path id="Pfad_447" data-name="Pfad 447" d="M173.959,143.875a.525.525,0,0,1-.46-.328.591.591,0,0,1,0-.525,105.736,105.736,0,0,0,15.632-7.159,27.851,27.851,0,0,1,1.9-11.231c-17.34-9.2-32.841-10.837-42.167-4.335a.46.46,0,0,1-.591,0,.525.525,0,0,1,0-.657c9.458-6.568,25.616-5.057,43.35,4.466h.328v.394a26.663,26.663,0,0,0-1.9,11.428v.328h0a107.391,107.391,0,0,1-16.092,7.356Z" transform="translate(1374.363 553.934)" fill="#d3891e"/>
    <path id="Pfad_448" data-name="Pfad 448" d="M194.542,135.614a105.091,105.091,0,0,1-44.992-9.589v-.394h.394a109.031,109.031,0,0,0,80.328,3.612h.328A109.62,109.62,0,0,1,194.542,135.614Z" transform="translate(1382.089 609.618)" fill="#f4b54f"/>
    <path id="Pfad_449" data-name="Pfad 449" d="M155.948,156.544h0v-.394c5.32-2.562,4.007-28.637,4.007-28.9h0c0,1.051,1.314,26.667-4.335,29.425Z" transform="translate(1415.887 618.638)" fill="#f4b54f"/>
    <path id="Pfad_450" data-name="Pfad 450" d="M155.28,158.006h0v-.394a212.9,212.9,0,0,0,.854-30.542h.328a205.654,205.654,0,0,1-.919,30.739S155.411,158.006,155.28,158.006Z" transform="translate(1413.994 617.636)" fill="#f4b54f"/>
    <circle id="Ellipse_4" data-name="Ellipse 4" cx="1.839" cy="1.839" r="1.839" transform="translate(1569.143 739.517)" fill="#f4b54f"/>
    <path id="Pfad_451" data-name="Pfad 451" d="M151.871,127.679h0a.46.46,0,0,1,0-.591,141.9,141.9,0,0,0,5.649-14.778.591.591,0,0,1,.854.525s-2.365,7.422-5.714,14.91a.591.591,0,0,1-.788-.066Z" transform="translate(1394.414 534.991)" fill="#d3891e"/>
    <path id="Pfad_452" data-name="Pfad 452" d="M164.443,115.325c-4.992,0-8.933-2.1-8.933-4.795s3.941-4.86,8.933-4.86,8.933,2.167,8.933,4.86S169.434,115.325,164.443,115.325Zm0-8.21c-4.4,0-7.488,1.839-7.488,3.415s3.087,3.415,7.488,3.415,7.488-1.839,7.488-3.415S168.843,107.115,164.443,107.115Z" transform="translate(1415.275 498.478)" fill="#361d57"/>
    <path id="Pfad_453" data-name="Pfad 453" d="M183.536,136.421c2.562-2.167,2.89-6.568-4.072-6.568a144.869,144.869,0,0,1-1.839-20.23,10.9,10.9,0,0,0-16.486,0,110.356,110.356,0,0,1-.788,20.1c-6.962,0-6.568,4.663-4.072,6.568-4.795,2.3.919,7.422,13.6,7.422S188.528,138.72,183.536,136.421Z" transform="translate(1410.171 499.517)" fill="#fff"/>
    <path id="Pfad_454" data-name="Pfad 454" d="M158.588,111.638c.46.394-2.5-3.941-3.613-2.365S157.865,111.047,158.588,111.638Z" transform="translate(1411.212 516.615)" fill="#fff"/>
    <path id="Pfad_455" data-name="Pfad 455" d="M158.612,111.638c-.46.394,2.43-3.941,3.612-2.365S159.334,111.047,158.612,111.638Z" transform="translate(1432.272 516.615)" fill="#fff"/>
    <path id="Pfad_456" data-name="Pfad 456" d="M154.831,111.089c0,.525,1.117.722,2.365.46s2.036-.854,1.9-1.379-1.182-.722-2.365-.525S154.7,110.563,154.831,111.089Z" transform="translate(1411.421 520.186)" fill="#f4a56e"/>
    <path id="Pfad_457" data-name="Pfad 457" d="M162.766,111.078c0,.525-1.182.788-2.365.525s-2.1-.92-1.97-1.445,1.182-.722,2.365-.46S162.9,110.552,162.766,111.078Z" transform="translate(1431.467 520.263)" fill="#f4a56e"/>
    <path id="Pfad_458" data-name="Pfad 458" d="M158.14,110.83c0,.46-.525,1.051-1.445,1.314a4.542,4.542,0,0,1-1.97,0c-.131,0,.525-.985,1.445-1.314S158.008,110.436,158.14,110.83Z" transform="translate(1410.806 525.699)" fill="#f4a56e"/>
    <ellipse id="Ellipse_5" data-name="Ellipse 5" cx="1.051" cy="3.021" rx="1.051" ry="3.021" transform="translate(1572.952 610.322)" fill="#f4a56e"/>
    <path id="Pfad_459" data-name="Pfad 459" d="M159.151,116.074c0,5.254.657,9.524.394,9.524a26.275,26.275,0,0,1-1.511-9.458,27.327,27.327,0,0,1,.788-9.589S158.954,110.885,159.151,116.074Z" transform="translate(1428.645 503.378)" fill="#f4a56e"/>
    <path id="Pfad_460" data-name="Pfad 460" d="M156.893,108.661c0,.591,0,1.117-.328,1.117s-.394-.525-.394-1.117,0-1.051.394-1.051S156.893,108.07,156.893,108.661Z" transform="translate(1418.95 509.28)" fill="#f4a56e"/>
    <path id="Pfad_461" data-name="Pfad 461" d="M163.721,111.073c-1.051-.394-7.882-.92-7.422,0S166.808,112.19,163.721,111.073Z" transform="translate(1419.543 525.719)" fill="#f4a56e"/>
  </g>
</svg>
